<svg id="icons" enable-background="new 0 0 64 64" height="512" viewBox="0 0 64 64" width="512" xmlns="http://www.w3.org/2000/svg"><g><g><path d="m32 57.503c-.149 0-.298-.033-.436-.1l-31-15c-.497-.241-.705-.839-.465-1.336.24-.495.836-.703 1.336-.465l30.565 14.79 30.564-14.789c.501-.238 1.096-.03 1.336.465.24.497.032 1.095-.465 1.336l-31 15c-.137.066-.286.099-.435.099z"/></g><g><path d="m32 62.503c-.149 0-.298-.033-.436-.1l-31-15c-.497-.241-.705-.839-.465-1.336.24-.496.836-.704 1.336-.465l30.565 14.79 30.564-14.789c.501-.239 1.096-.031 1.336.465.24.497.032 1.095-.465 1.336l-31 15c-.137.066-.286.099-.435.099z"/></g><g><path d="m1 47.503c-.553 0-1-.447-1-1v-5c0-.553.447-1 1-1s1 .447 1 1v5c0 .553-.447 1-1 1z"/></g><g><path d="m63 47.503c-.553 0-1-.447-1-1v-5c0-.553.447-1 1-1s1 .447 1 1v5c0 .553-.447 1-1 1z"/></g><g><path d="m32 62.503c-.553 0-1-.447-1-1v-5c0-.553.447-1 1-1s1 .447 1 1v5c0 .553-.447 1-1 1z"/></g><g><path d="m42.03 55.164c-.553 0-1.005-.447-1.005-1s.442-1 .994-1h.011c.552 0 1 .447 1 1s-.448 1-1 1z"/></g><g><path d="m57.03 47.906c-.553 0-1.005-.447-1.005-1s.442-1 .994-1h.011c.552 0 1 .447 1 1s-.448 1-1 1z"/></g><g><path d="m52.03 50.325c-.553 0-1.005-.447-1.005-1s.442-1 .994-1h.011c.552 0 1 .447 1 1s-.448 1-1 1z"/></g><g><path d="m47.03 52.745c-.553 0-1.005-.447-1.005-1s.442-1 .994-1h.011c.552 0 1 .447 1 1s-.448 1-1 1z"/></g><g><path d="m37.03 57.584c-.553 0-1.005-.447-1.005-1s.442-1 .994-1h.011c.552 0 1 .447 1 1s-.448 1-1 1z"/></g><g><path d="m22.03 55.164c-.553 0-1.005-.447-1.005-1s.442-1 .994-1h.011c.552 0 1 .447 1 1s-.448 1-1 1z"/></g><g><path d="m7.03 47.906c-.553 0-1.005-.447-1.005-1s.442-1 .994-1h.011c.552 0 1 .447 1 1s-.448 1-1 1z"/></g><g><path d="m12.03 50.325c-.553 0-1.005-.447-1.005-1s.442-1 .994-1h.011c.552 0 1 .447 1 1s-.448 1-1 1z"/></g><g><path d="m17.03 52.745c-.553 0-1.005-.447-1.005-1s.442-1 .994-1h.011c.552 0 1 .447 1 1s-.448 1-1 1z"/></g><g><path d="m27.03 57.584c-.553 0-1.005-.447-1.005-1s.442-1 .994-1h.011c.552 0 1 .447 1 1s-.448 1-1 1z"/></g><g><path d="m17.883 34.336c-.372 0-.729-.208-.901-.564-.24-.497-.032-1.096.465-1.336l4.118-1.992c.502-.239 1.096-.031 1.336.465.24.497.032 1.096-.465 1.336l-4.118 1.992c-.141.067-.29.099-.435.099z"/></g><g><path d="m1.001 42.503c-.372 0-.729-.208-.901-.564-.24-.497-.032-1.096.465-1.336l11.396-5.513c.502-.238 1.096-.03 1.336.465.24.497.032 1.096-.465 1.336l-11.396 5.512c-.141.068-.29.1-.435.1z"/></g><g><path d="m46.113 34.333c-.146 0-.294-.032-.435-.1l-4.113-1.99c-.497-.241-.705-.839-.465-1.336.241-.495.837-.703 1.336-.465l4.113 1.99c.497.241.705.839.465 1.336-.172.357-.529.565-.901.565z"/></g><g><path d="m62.999 42.503c-.146 0-.294-.032-.435-.1l-11.398-5.515c-.497-.241-.705-.839-.465-1.336.241-.496.837-.704 1.336-.465l11.398 5.515c.497.241.705.839.465 1.336-.172.357-.529.565-.901.565z"/></g><g><path d="m32 47.505c-.153 0-.307-.035-.447-.105l-10-5.001c-.494-.247-.694-.848-.447-1.342.248-.494.848-.692 1.342-.447l9.552 4.777 9.553-4.777c.494-.245 1.095-.047 1.342.447s.047 1.095-.447 1.342l-10 5.001c-.141.07-.295.105-.448.105z"/></g><g><path d="m32 13.498c-.153 0-.307-.035-.447-.105l-10-5.001c-.494-.247-.694-.848-.447-1.342.248-.494.848-.692 1.342-.447l9.552 4.777 9.553-4.777c.494-.245 1.095-.047 1.342.447s.047 1.095-.447 1.342l-10 5.001c-.141.07-.295.105-.448.105z"/></g><g><path d="m41.999 8.498c-.15 0-.303-.034-.446-.105l-9.553-4.778-9.553 4.777c-.494.245-1.094.047-1.342-.447-.247-.494-.047-1.095.447-1.342l10-5.001c.281-.141.613-.141.895 0l10 5.001c.494.247.694.848.447 1.342-.175.351-.528.553-.895.553z"/></g><g><path d="m32 47.505c-.553 0-1-.447-1-1v-34.008c0-.553.447-1 1-1s1 .447 1 1v34.008c0 .553-.447 1-1 1z"/></g><g><path d="m42 42.504c-.553 0-1-.447-1-1v-34.008c0-.553.447-1 1-1s1 .447 1 1v34.008c0 .553-.447 1-1 1z"/></g><g><path d="m22 42.504c-.553 0-1-.447-1-1v-34.008c0-.553.447-1 1-1s1 .447 1 1v34.008c0 .553-.447 1-1 1z"/></g><g><path d="m28.998 41c-.15 0-.303-.034-.446-.105l-4.001-2.001c-.494-.247-.694-.848-.447-1.342.248-.494.848-.692 1.342-.447l4.001 2.001c.494.247.694.848.447 1.342-.176.35-.529.552-.896.552z"/></g><g><path d="m28.998 37c-.15 0-.303-.034-.446-.105l-4.001-2.001c-.494-.247-.694-.848-.447-1.342.248-.494.848-.692 1.342-.447l4.001 2.001c.494.247.694.848.447 1.342-.176.35-.529.552-.896.552z"/></g><g><path d="m28.998 33c-.15 0-.303-.034-.446-.105l-4.001-2.001c-.494-.247-.694-.848-.447-1.342.248-.494.848-.693 1.342-.447l4.001 2.001c.494.247.694.848.447 1.342-.176.35-.529.552-.896.552z"/></g><g><path d="m28.998 29c-.15 0-.303-.034-.446-.105l-4.001-2.001c-.494-.247-.694-.848-.447-1.342.248-.495.848-.692 1.342-.447l4.001 2.001c.494.247.694.848.447 1.342-.176.35-.529.552-.896.552z"/></g><g><path d="m28.998 25c-.15 0-.303-.034-.446-.105l-4.001-2.001c-.494-.247-.694-.848-.447-1.342.248-.494.848-.692 1.342-.447l4.001 2.001c.494.247.694.848.447 1.342-.176.35-.529.552-.896.552z"/></g><g><path d="m28.998 21c-.15 0-.303-.034-.446-.105l-4.001-2.001c-.494-.247-.694-.848-.447-1.342.248-.494.848-.693 1.342-.447l4.001 2.001c.494.247.694.848.447 1.342-.176.35-.529.552-.896.552z"/></g><g><path d="m28.998 17c-.15 0-.303-.034-.446-.105l-4.001-2.001c-.494-.247-.694-.848-.447-1.342.248-.494.848-.693 1.342-.447l4.001 2.001c.494.247.694.848.447 1.342-.176.35-.529.552-.896.552z"/></g><g><path d="m35.002 41c-.367 0-.72-.202-.896-.553-.247-.494-.047-1.095.447-1.342l4.001-2.001c.494-.245 1.095-.047 1.342.447s.047 1.095-.447 1.342l-4.001 2.001c-.143.072-.296.106-.446.106z"/></g><g><path d="m35.002 37c-.367 0-.72-.202-.896-.553-.247-.494-.047-1.095.447-1.342l4.001-2.001c.494-.245 1.095-.047 1.342.447s.047 1.095-.447 1.342l-4.001 2.001c-.143.072-.296.106-.446.106z"/></g><g><path d="m35.002 33c-.367 0-.72-.202-.896-.553-.247-.494-.047-1.095.447-1.342l4.001-2.001c.494-.246 1.095-.047 1.342.447s.047 1.095-.447 1.342l-4.001 2.001c-.143.072-.296.106-.446.106z"/></g><g><path d="m35.002 29c-.367 0-.72-.202-.896-.553-.247-.494-.047-1.095.447-1.342l4.001-2.001c.494-.245 1.095-.048 1.342.447.247.494.047 1.095-.447 1.342l-4.001 2.001c-.143.072-.296.106-.446.106z"/></g><g><path d="m35.002 25c-.367 0-.72-.202-.896-.553-.247-.494-.047-1.095.447-1.342l4.001-2.001c.494-.245 1.095-.047 1.342.447s.047 1.095-.447 1.342l-4.001 2.001c-.143.072-.296.106-.446.106z"/></g><g><path d="m35.002 21c-.367 0-.72-.202-.896-.553-.247-.494-.047-1.095.447-1.342l4.001-2.001c.494-.246 1.095-.047 1.342.447s.047 1.095-.447 1.342l-4.001 2.001c-.143.072-.296.106-.446.106z"/></g><g><path d="m35.002 17c-.367 0-.72-.202-.896-.553-.247-.494-.047-1.095.447-1.342l4.001-2.001c.494-.246 1.095-.047 1.342.447s.047 1.095-.447 1.342l-4.001 2.001c-.143.072-.296.106-.446.106z"/></g><g><path d="m49 38.5c-2.206 0-4-1.794-4-4 0-1.141 1.152-8.004 4-8.004s4 6.863 4 8.004c0 2.206-1.794 4-4 4zm0-9.982c-.79.485-2 4.333-2 5.982 0 1.103.897 2 2 2s2-.897 2-2c0-1.649-1.21-5.497-2-5.982z"/></g><g><path d="m49 42.497c-.553 0-1-.447-1-1v-6.997c0-.553.447-1 1-1s1 .447 1 1v6.997c0 .553-.447 1-1 1z"/></g><g><path d="m15 38.5c-2.206 0-4-1.794-4-4 0-1.141 1.152-8.004 4-8.004s4 6.863 4 8.004c0 2.206-1.794 4-4 4zm0-9.982c-.79.485-2 4.333-2 5.982 0 1.103.897 2 2 2s2-.897 2-2c0-1.649-1.21-5.497-2-5.982z"/></g><g><path d="m15 42.497c-.553 0-1-.447-1-1v-6.997c0-.553.447-1 1-1s1 .447 1 1v6.997c0 .553-.447 1-1 1z"/></g></g></svg>