<svg id="Capa_1" enable-background="new 0 0 511.985 511.985" height="512" viewBox="0 0 511.985 511.985" width="512" xmlns="http://www.w3.org/2000/svg"><g><path d="m408.622 332.074c1.424-11.36 1.798-22.897 1.07-34.412-.349-5.512-5.088-9.704-10.611-9.35-5.512.348-9.697 5.099-9.35 10.61.579 9.15.377 18.312-.569 27.36-5.446-.99-11.055-1.509-16.783-1.509-29.751 0-56.305 13.941-73.469 35.629-7.286-3.676-7.936-7.252-8.212-8.786-.996-5.536 1.691-14.065 4.538-23.095 6.355-20.167 15.061-47.787-5.611-76.821-5.195-7.291-4.442-19.295 1.874-29.872 10.126-16.955 30.342-25.618 54.5-23.554 5.803 6.162 11.169 12.814 16.02 19.932 3.109 4.564 9.33 5.742 13.895 2.633 4.564-3.11 5.743-9.331 2.633-13.895-32.087-47.091-84.062-76.245-140.513-79.338 0-.023.003-.045.003-.068v-45.436c6.081 1.25 12.099 1.892 17.98 1.892 13.455 0 26.203-3.261 37.406-9.732 19.644-11.346 33.102-31.728 37.896-57.392.905-4.845-1.855-9.627-6.504-11.267-24.646-8.692-49.045-7.231-68.699 4.115-11.761 6.79-21.283 16.84-28.079 29.307-6.797-12.463-16.32-22.511-28.081-29.301-19.664-11.352-44.07-12.815-68.723-4.121-4.65 1.64-7.411 6.426-6.503 11.272 4.81 25.668 18.281 46.051 37.931 57.394 11.204 6.467 23.945 9.726 37.398 9.726 5.88 0 11.898-.643 17.979-1.893v45.436c0 .019.003.038.003.057-95.748 5.206-172.047 84.708-172.047 181.695 0 100.356 81.665 182.002 182.044 182.002 24.828 0 48.753-4.878 71.25-14.481 17.175 21.426 43.557 35.173 73.093 35.173 51.618 0 93.612-41.998 93.612-93.62-.001-38.766-23.698-72.101-57.371-86.29zm-142.507-305.035c12.311-7.108 27.479-8.845 43.422-5.107-4.735 15.654-13.816 27.907-26.117 35.012-12.312 7.111-27.483 8.856-43.432 5.128 4.736-15.669 13.82-27.928 26.127-35.033zm-93.457 29.909c-12.308-7.105-21.398-19.358-26.144-35.018 15.949-3.736 31.123-1.997 43.44 5.114 12.309 7.106 21.395 19.364 26.131 35.028-15.945 3.727-31.115 1.984-43.427-5.124zm-22.008 110.065c9.201 31.6 35.303 39.113 50.128 43.368 5.113 1.474 10.685 3.057 14.764 6.659 1.083.956 2.221 2.203 2.439 3.692.28 1.912-.81 3.927-1.807 5.47-2.145 3.317-5.193 6.039-8.334 8.386-14.539 10.881-22.343 14.607-37.159 13.836-14.307-.733-24.12 1.704-30.883 7.671-6.448 5.689-8.54 13.187-10.386 19.802-3.248 11.64-6.053 21.693-32.93 27.136-11.294 2.284-20.98 2.871-30.426 1.795 1.618-59.441 35.428-110.989 84.594-137.815zm34.484 223.926c-.263 2.239-2.458 5.388-4.782 8.722-5.144 7.379-12.189 17.485-9.218 32.526 1.126 5.678 2.966 10.354 4.589 14.479 2.756 7.007 4.279 10.903 1.895 16.587-31.533-10.347-58.831-30.117-78.535-55.974 13.8-17.443 35.798-34.194 55.334-35.662 10.114-.753 18.561 2.676 25.833 10.495 2.398 2.583 5.191 6.21 4.884 8.827zm42.903 80.353c-10.613 0-20.989-1.028-31.038-2.985 4.005-11.992.391-21.196-2.665-28.963-1.443-3.667-2.806-7.131-3.581-11.041-1.261-6.383 1.325-10.492 6.005-17.206 6.046-8.674 16.167-23.192-1.859-42.601-11.361-12.215-25.878-18.036-41.981-16.823-24.218 1.819-48.867 19.45-65.371 38.254-11.222-19.467-18.521-41.468-20.79-64.92 2.814.239 5.644.364 8.515.364 7.918 0 16.146-.911 25.177-2.738 38.882-7.875 44.506-28.028 48.227-41.363 1.455-5.214 2.443-8.495 4.354-10.181 2.485-2.192 8.236-3.119 16.619-2.694 22.863 1.195 35.729-6.986 50.168-17.793 13.568-10.139 19.899-22.05 17.828-33.539-1.453-8.06-7.678-18.984-29.096-25.259l-2.254-.65c-15.013-4.308-31.847-9.152-37.234-32.732 18.285-7.167 38.178-11.107 58.975-11.107 35.19 0 68.846 11.402 96.376 31.774-21.66 3.46-39.505 14.768-50.084 32.482-10.485 17.557-10.874 37.863-.993 51.729 14.893 20.918 8.759 40.383 2.826 59.207-3.608 11.449-7.017 22.263-5.146 32.651 1.705 9.469 7.366 16.799 17.201 22.206-6.066 12.389-9.477 26.302-9.477 40.999 0 14.825 3.47 28.853 9.632 41.324-19.112 7.697-39.356 11.605-60.334 11.605zm144.343 20.693c-40.605 0-73.641-33.026-73.641-73.62 0-40.579 33.035-73.592 73.641-73.592 40.59 0 73.612 33.013 73.612 73.592 0 40.594-33.022 73.62-73.612 73.62z"/><path d="m380.073 251.437c0 5.523 4.478 9.986 10 9.986s10-4.491 10-10.014-4.478-10-10-10-10 4.477-10 10z"/><path d="m394.388 409.414c-1.328-.661-2.732-.99-4.123-1.036-.109-.006-19.286-.013-19.286-.013l14.606-29.338c2.461-4.944.448-10.947-4.495-13.409-4.944-2.46-10.947-.448-13.409 4.496l-21.803 43.794c-2.461 4.944-.448 10.947 4.495 13.409 1.167.581 2.394.901 3.619 1.003.223.025 19.789.045 19.789.045l-14.606 29.337c-2.461 4.944-.448 10.947 4.495 13.409 1.432.713 2.952 1.051 4.449 1.051 3.675 0 7.211-2.033 8.96-5.545l21.804-43.794c2.461-4.945.448-10.948-4.495-13.409z"/></g></svg>